<?xml version="1.0" encoding="utf-8"?>
<!-- Generator: Adobe Illustrator 16.0.3, SVG Export Plug-In . SVG Version: 6.00 Build 0)  -->
<!DOCTYPE svg PUBLIC "-//W3C//DTD SVG 1.1//EN" "http://www.w3.org/Graphics/SVG/1.1/DTD/svg11.dtd">
<svg version="1.1" id="Layer_1" xmlns="http://www.w3.org/2000/svg" xmlns:xlink="http://www.w3.org/1999/xlink" x="0px" y="0px"
	 width="104px" height="103px" viewBox="0 0 104 103" enable-background="new 0 0 104 103" xml:space="preserve">
<g>
	<path fill="#F0F0F0" d="M64.176,45.089H64.14c0.256,0,0.472,0.08,0.643,0.239C64.611,45.169,64.408,45.089,64.176,45.089z"/>
	<path fill="#F0F0F0" d="M68.553,26.481c0-0.289-0.008-0.584-0.02-0.864v-0.081c0-0.001,0-0.003,0-0.004v-0.191
		c0-0.06-0.01-0.116-0.028-0.168c-0.079-1.184-0.262-2.335-0.542-3.428c-0.867-3.312-2.702-6.284-5.451-8.831
		c-0.964-0.902-1.985-1.701-3.041-2.379c-3.348-2.132-7.22-3.213-11.512-3.213c-5.658,0-10.554,1.881-14.551,5.589
		c-2.763,2.562-4.598,5.534-5.455,8.836c-0.289,1.132-0.474,2.33-0.55,3.593v19.747c0,0.304,0.246,0.552,0.552,0.552h40.027
		c0.304,0,0.551-0.248,0.551-0.552V27.351C68.545,27.061,68.553,26.771,68.553,26.481z M67.43,27.327v17.211H45.366V33.874
		c0-2.215,0.821-4.062,2.506-5.644c1.689-1.55,3.754-2.337,6.136-2.337h13.432c0.007,0.199,0.009,0.396,0.009,0.588
		C67.448,26.755,67.442,27.03,67.43,27.327z"/>
	<path fill="#F0F0F0" d="M64.14,47.368H31.595c-0.395,0-0.753-0.14-1.038-0.405c-0.054-0.053-0.097-0.104-0.139-0.164
		c-0.192-0.241-0.294-0.526-0.294-0.828c0-0.004,0-0.006,0-0.01c0-0.002,0-0.006,0-0.008c0-0.391,0.145-0.742,0.419-1.016
		c0.01-0.009,0.02-0.018,0.029-0.026c0.286-0.249,0.63-0.374,1.022-0.374H64.14c0.394,0,0.745,0.133,1.018,0.386
		c0.298,0.277,0.453,0.632,0.453,1.03c0,0.405-0.155,0.748-0.453,1.01C64.888,47.229,64.535,47.368,64.14,47.368z M31.227,45.962
		c0,0.003,0,0.006,0,0.01c0,0.04,0.008,0.083,0.057,0.143c0.013,0.016,0.024,0.031,0.035,0.046c0.073,0.072,0.158,0.104,0.276,0.104
		H64.14c0.139,0,0.204-0.045,0.253-0.096c0.01-0.008,0.019-0.018,0.028-0.026c0.071-0.062,0.085-0.111,0.085-0.171
		c0-0.111-0.027-0.173-0.101-0.241c-0.044-0.042-0.116-0.09-0.266-0.09H31.595c-0.117,0-0.205,0.028-0.285,0.091
		c-0.058,0.063-0.083,0.129-0.083,0.222C31.227,45.956,31.227,45.959,31.227,45.962z"/>
	<path fill="#F0F0F0" d="M61.934,46.265H34.353c-2.766,0-4.229,1.375-4.229,3.973v16.216c0,2.598,1.463,3.973,4.229,3.973h27.581
		c2.767,0,4.229-1.375,4.229-3.973V50.237C66.162,47.639,64.7,46.265,61.934,46.265z"/>
	<g>
		<path fill="#F0F0F0" d="M60.37,71.951H35.732c-0.37,0-0.703-0.127-0.963-0.367c-0.142-0.121-0.255-0.291-0.324-0.496
			c-0.062-0.139-0.093-0.287-0.093-0.441c0-0.375,0.145-0.707,0.417-0.957c0.26-0.24,0.593-0.367,0.963-0.367H60.37
			c0.37,0,0.703,0.127,0.961,0.367c0.273,0.25,0.417,0.582,0.417,0.957c0,0.363-0.144,0.688-0.417,0.939
			C61.073,71.824,60.74,71.951,60.37,71.951z M35.732,70.426c-0.118,0-0.175,0.037-0.215,0.074s-0.062,0.07-0.062,0.146
			c0.015,0.027,0.022,0.051,0.032,0.08c0.006,0.004,0.024,0.043,0.029,0.047c0.04,0.037,0.097,0.076,0.215,0.076H60.37
			c0.117,0,0.174-0.039,0.215-0.076c0.052-0.049,0.061-0.082,0.061-0.127c0-0.074-0.021-0.109-0.061-0.146
			c-0.041-0.037-0.098-0.074-0.215-0.074H35.732z"/>
	</g>
	<path fill="#F0F0F0" d="M57.521,70.85H38.674c-1.956,0-3.258,0.684-3.868,2.035c-0.239,0.535-0.36,1.186-0.36,1.936v6.141
		c0,2.598,1.462,3.971,4.229,3.971h18.847c2.768,0,4.228-1.373,4.228-3.971V74.82C61.748,72.221,60.288,70.85,57.521,70.85z"/>
	<path fill="#F0F0F0" d="M57.666,86.477H38.619c-0.355,0-0.67-0.156-0.883-0.441c-0.102-0.117-0.186-0.277-0.232-0.455
		c-0.049-0.131-0.071-0.262-0.066-0.396c-0.009-0.076-0.005-0.152,0.012-0.227c0.029-0.271,0.131-0.51,0.302-0.707
		c0.214-0.271,0.521-0.422,0.868-0.422h19.047c0.339,0,0.638,0.146,0.865,0.42c0.207,0.248,0.312,0.553,0.312,0.904
		s-0.104,0.658-0.312,0.906C58.304,86.332,58.005,86.477,57.666,86.477z M38.543,85.207c0.009,0.027,0.021,0.062,0.025,0.082
		c0.005,0.023,0.014,0.039,0.028,0.057l0.029,0.035l19.043-0.008c0.031-0.041,0.071-0.09,0.071-0.221s-0.04-0.178-0.056-0.197
		l-19.065-0.023c-0.01,0.014-0.021,0.025-0.031,0.037c-0.02,0.021-0.039,0.055-0.044,0.129c0,0.002,0,0.006-0.001,0.01
		C38.546,85.141,38.546,85.174,38.543,85.207z"/>
	<path fill="#F0F0F0" d="M71.336,86.68c-0.812-0.756-1.811-1.141-2.968-1.141H38.582c-1.155,0-2.159,0.383-2.991,1.145
		c-0.821,0.779-1.238,1.73-1.238,2.826v3.918c0,0.771,0.494,1.25,1.288,1.25h35.67c0.792,0,1.286-0.479,1.286-1.25V89.51
		C72.597,88.412,72.172,87.461,71.336,86.68z"/>
</g>
</svg>
