<?xml version="1.0" encoding="utf-8"?>
<!-- Generator: Adobe Illustrator 16.0.3, SVG Export Plug-In . SVG Version: 6.00 Build 0)  -->
<!DOCTYPE svg PUBLIC "-//W3C//DTD SVG 1.1//EN" "http://www.w3.org/Graphics/SVG/1.1/DTD/svg11.dtd">
<svg version="1.1" id="Layer_1" xmlns="http://www.w3.org/2000/svg" xmlns:xlink="http://www.w3.org/1999/xlink" x="0px" y="0px"
	 width="104px" height="103px" viewBox="0 0 104 103" enable-background="new 0 0 104 103" xml:space="preserve">
<path id="campfire" fill="#F0F0F0" d="M33.529,40.089c1.537-1.628,2.847-2.937,3.931-3.932c3.523-2.711,6.461-5.919,8.81-9.622
	c4.788-7.59,4.428-13.962-1.084-19.11c6.145,1.083,10.798,4.156,13.958,9.215c2.621,4.159,3.887,8.854,3.797,14.097
	c0,1.354-0.857,5.511-2.575,12.468c-1.083,3.977-0.36,6.146,2.168,6.507c2.53,0.543,4.743-1.763,6.642-6.912l2.033-7.861
	c0-3.254,1.13,1.58,3.389,14.504c1.355,8.403,0.452,15.358-2.711,20.87c-2.258,3.617-5.781,6.822-10.57,9.625
	c-2.894,1.627-5.422,4.562-7.592,8.812c-1.173,2.168-1.988,4.11-2.438,5.826c-0.362-2.078-1.311-4.427-2.847-7.048
	c-3.072-5.422-7.5-9.76-13.283-13.01C24.947,68.1,22.281,59.788,27.16,49.578C28.605,46.413,30.728,43.252,33.529,40.089z
	 M38.679,22.469v1.49c0,1.266-0.27,2.846-0.812,4.744c-0.812,1.715-1.852,3.118-3.117,4.201c-1.808,1.447-3.525,3.613-5.15,6.507
	c-1.085-0.813-1.626-3.073-1.626-6.777c-0.09-4.249,1.039-7.229,3.388-8.944c2.439-1.719,3.66-3.842,3.66-6.372l-0.408-3.389
	C37.144,16.187,38.499,19.035,38.679,22.469z"/>
</svg>
