<?xml version="1.0" encoding="utf-8"?>
<!-- Generator: Adobe Illustrator 16.0.3, SVG Export Plug-In . SVG Version: 6.00 Build 0)  -->
<!DOCTYPE svg PUBLIC "-//W3C//DTD SVG 1.1//EN" "http://www.w3.org/Graphics/SVG/1.1/DTD/svg11.dtd">
<svg version="1.1" id="Layer_1" xmlns="http://www.w3.org/2000/svg" xmlns:xlink="http://www.w3.org/1999/xlink" x="0px" y="0px"
	 width="104px" height="103px" viewBox="0 0 104 103" enable-background="new 0 0 104 103" xml:space="preserve">
<path id="eveo" fill="#F0F0F0" d="M80.847,24.123l-62.948,5.418c-0.291,0.025-0.569,0.135-0.82,0.311
	c-0.251,0.176-0.477,0.418-0.666,0.71c-0.188,0.292-0.341,0.632-0.446,1.005c-0.105,0.373-0.164,0.777-0.164,1.198v36.471
	c0,0.421,0.059,0.825,0.164,1.198c0.105,0.372,0.258,0.713,0.446,1.004c0.189,0.293,0.415,0.535,0.666,0.711
	c0.251,0.177,0.529,0.286,0.82,0.311l62.948,5.418c0.458,0.04,0.896-0.03,1.297-0.191s0.762-0.414,1.066-0.738
	c0.305-0.326,0.552-0.725,0.723-1.175c0.171-0.451,0.266-0.955,0.266-1.492V27.72c0-0.537-0.095-1.041-0.266-1.492
	c-0.171-0.45-0.418-0.848-0.723-1.174c-0.305-0.325-0.666-0.578-1.066-0.739S81.305,24.083,80.847,24.123"/>
</svg>
