<?xml version="1.0" encoding="utf-8"?>
<!-- Generator: Adobe Illustrator 14.0.0, SVG Export Plug-In . SVG Version: 6.00 Build 43363)  -->
<!DOCTYPE svg PUBLIC "-//W3C//DTD SVG 1.1//EN" "http://www.w3.org/Graphics/SVG/1.1/DTD/svg11.dtd">
<svg version="1.1" id="Layer_1" xmlns="http://www.w3.org/2000/svg" xmlns:xlink="http://www.w3.org/1999/xlink" x="0px" y="0px"
	 width="156px" height="156px" viewBox="0 0 156 156" enable-background="new 0 0 156 156" xml:space="preserve">
<path fill-rule="evenodd" clip-rule="evenodd" fill="#9A3467" d="M0,78c0,43.08,34.92,78,78,78s78-34.92,78-78S121.08,0,78,0
	S0,34.92,0,78z M97.13,58.75c9.25,4.75,18.75,10,28.25,15.5c2.5,1.5,3.5,4.5,3.5,6.25s-1,4.25-3.25,5.75
	C116.38,92,106.88,97,97.38,102c-1,0.5-2.75,0.75-3.25,0.75c-2.75,0-7-2.25-7-5.75V64c0.75-4.25,3.75-5.75,7-5.75
	C94.63,58.25,96.13,58.25,97.13,58.75z M55,83c0-5.52,4.48-10,10-10s10,4.48,10,10s-4.48,10-10,10S55,88.52,55,83z M25,83
	c0-5.52,4.48-10,10-10s10,4.48,10,10s-4.48,10-10,10S25,88.52,25,83z"/>
</svg>
