<?xml version="1.0" encoding="utf-8"?>
<!-- Generator: Adobe Illustrator 16.0.3, SVG Export Plug-In . SVG Version: 6.00 Build 0)  -->
<!DOCTYPE svg PUBLIC "-//W3C//DTD SVG 1.1//EN" "http://www.w3.org/Graphics/SVG/1.1/DTD/svg11.dtd">
<svg version="1.1" id="Layer_1" xmlns="http://www.w3.org/2000/svg" xmlns:xlink="http://www.w3.org/1999/xlink" x="0px" y="0px"
	 width="104px" height="103px" viewBox="0 0 104 103" enable-background="new 0 0 104 103" xml:space="preserve">
<path id="jabra_1_" fill="#F0F0F0" d="M85.443,48.269c-1.838-2.825-4.92-6.731-5.111-10.251c-0.156-2.889,2.161-3.597,1.165-7.38
	C78.065,17.599,70.312,7.145,53.92,5.78c-11.53-0.96-22.446-0.4-32.359,5.971c-4.059,2.607-7.755,7.859-9.091,12.478
	c-2.078,7.186-0.917,14.226,1.65,21.173c3.468,9.393,9.106,19.584,5.059,29.723c-0.29,0.726-0.622,1.434-0.991,2.122
	c11.679,7.269,24.582,13.135,36.841,19.344c0.337-2.797-0.243-6.015,1.051-8.663c0.917-1.879,3.048-7.306,5.223-7.962
	c5.298-1.601,16.172,4.137,18.643-3.884c-1.169-3.76,0.085-7.062,1.941-8.933c-0.433-0.732-0.546-1.785-1.554-1.943
	c2.917-1.327,0.935-4.022,1.554-6.602c1.262-2.247,5.9-1.755,6.604-4.272C89.164,51.905,86.615,50.07,85.443,48.269z M51.771,66.419
	c-0.034,0.171-0.217,0.729-1.131,0.729c-0.431,0-0.983-0.126-1.594-0.363c-1.087-0.424-3.039-1.54-3.603-2.303
	c-0.12-0.092-0.512-0.321-0.89-0.546c-3.198-1.885-12.931-7.627-15.22-17.567c-0.871-3.778-0.146-7.309,2.038-9.943
	c1.565-1.886,3.651-3.269,5.877-3.892c0.491-0.137,0.981-0.205,1.496-0.205c1.277,0,2.446,0.422,3.578,0.831l0.294,0.102
	c0.023,0.011,0.07,0.028,0.145,0.055l0.011,0.003c0.002,0.001,0.003,0.001,0.004,0.001l-0.005,0.019
	c0.526,0.29,2.601,1.636,1.872,4.497c-0.282,1.11-0.487,1.912-1.162,3.063c-0.662,1.129-1.458,1.989-1.984,2.557
	c-0.132,0.144-0.249,0.27-0.343,0.378c-0.338,0.39-0.64,0.684-0.882,0.92c-0.207,0.201-0.37,0.36-0.495,0.517l0.129,0.023
	c1.889,0.342,2.806,0.894,2.725,1.639c-0.013,0.115-0.014,0.334-0.015,0.567c-0.004,1.297-0.063,2.408-0.756,2.859
	c-0.461,0.301-1.115,0.445-1.584,0.513l-0.345,0.043c-0.116,0.01-0.197,0.015-0.228,0.016l-0.602-0.11
	c-0.596-0.112-1.559-0.392-2.232-1.064c-0.996-0.996-1.426-2.959-0.886-4.04c0.175-0.352,0.822-1.157,1.948-2.55
	c1.266-1.563,2.998-3.705,3.275-4.396c0.06-0.149,0.12-0.287,0.177-0.417c0.245-0.562,0.369-0.842,0.178-1.407
	c-0.152-0.445-0.491-0.808-1.137-1.211c-1.188-0.743-2.502-0.942-3.482-0.492c-2.954,1.357-4.627,3.64-4.973,6.784
	c-0.5,4.533,0.863,8.513,4.048,11.833c5.557,5.789,9.522,7.979,10.163,8.312c0.516,0.046,2.447,0.283,3.592,1.301
	C50.141,63.801,51.959,65.474,51.771,66.419z"/>
</svg>
