<?xml version="1.0" encoding="utf-8"?>
<!-- Generator: Adobe Illustrator 14.0.0, SVG Export Plug-In . SVG Version: 6.00 Build 43363)  -->
<!DOCTYPE svg PUBLIC "-//W3C//DTD SVG 1.1//EN" "http://www.w3.org/Graphics/SVG/1.1/DTD/svg11.dtd">
<svg version="1.1" id="Layer_1" xmlns="http://www.w3.org/2000/svg" xmlns:xlink="http://www.w3.org/1999/xlink" x="0px" y="0px"
	 width="450px" height="100px" viewBox="0 0 450 100" enable-background="new 0 0 450 100" xml:space="preserve">
<path fill="#333333" d="M273.262,30.48c0,2.344,1.074,3.612,3.516,3.612s3.614-1.269,3.614-3.612c0-2.345-1.173-3.516-3.614-3.516
	S273.262,28.136,273.262,30.48z"/>
<path fill="#333333" d="M273.359,38.487c0,2.247,1.172,3.418,3.418,3.418s3.418-1.171,3.418-3.418c0-2.245-1.172-3.319-3.418-3.319
	S273.359,36.242,273.359,38.487z"/>
<path fill="#333333" d="M290.45,43.37c-2.052,0-3.223,0.977-3.223,3.127c0,2.147,1.171,3.221,3.223,3.221
	c2.148,0,3.223-1.073,3.223-3.221C293.673,44.347,292.599,43.37,290.45,43.37z"/>
<path fill="#333333" d="M306.466,41.905c2.247,0,3.418-1.171,3.418-3.418c0-2.245-1.171-3.319-3.418-3.319
	c-2.246,0-3.32,1.074-3.32,3.319C303.146,40.734,304.22,41.905,306.466,41.905z"/>
<path fill="#333333" d="M295.04,38.487c0,2.247,1.171,3.418,3.418,3.418c2.246,0,3.418-1.171,3.418-3.418
	c0-2.245-1.172-3.319-3.418-3.319C296.211,35.168,295.04,36.242,295.04,38.487z"/>
<path fill="#333333" d="M314.474,41.905c2.246,0,3.321-1.171,3.321-3.418c0-2.245-1.075-3.319-3.321-3.319s-3.319,1.074-3.319,3.319
	C311.154,40.734,312.228,41.905,314.474,41.905z"/>
<path fill="#333333" d="M322.482,43.37c-2.051,0-3.223,0.977-3.223,3.127c0,2.147,1.172,3.221,3.223,3.221
	c2.148,0,3.125-1.073,3.125-3.221C325.607,44.347,324.631,43.37,322.482,43.37z"/>
<path fill="#333333" d="M344.163,35.168c-2.246,0-3.418,1.074-3.418,3.319c0,2.247,1.172,3.418,3.418,3.418s3.418-1.171,3.418-3.418
	C347.581,36.242,346.409,35.168,344.163,35.168z"/>
<path fill="#333333" d="M336.252,43.37c-2.147,0-3.32,0.977-3.32,3.127c0,2.147,1.173,3.221,3.32,3.221
	c2.052,0,3.125-1.073,3.125-3.221C339.377,44.347,338.304,43.37,336.252,43.37z"/>
<path fill="#333333" d="M356.858,38.487c0,2.247,1.074,3.418,3.32,3.418c2.247,0,3.418-1.171,3.418-3.418
	c0-2.245-1.171-3.319-3.418-3.319C357.933,35.168,356.858,36.242,356.858,38.487z"/>
<path fill="#333333" d="M355.589,38.487c0-2.245-1.172-3.319-3.418-3.319c-2.247,0-3.418,1.074-3.418,3.319
	c0,2.247,1.171,3.418,3.418,3.418C354.417,41.905,355.589,40.734,355.589,38.487z"/>
<path fill="#333333" d="M368.187,43.37c-2.05,0-3.125,0.977-3.125,3.127c0,2.147,1.075,3.221,3.125,3.221
	c2.052,0,3.223-1.073,3.223-3.221C371.409,44.347,370.238,43.37,368.187,43.37z"/>
<path fill="#333333" d="M364.867,38.487c0,2.247,1.073,3.418,3.319,3.418s3.321-1.171,3.321-3.418c0-2.245-1.075-3.319-3.321-3.319
	S364.867,36.242,364.867,38.487z"/>
<path fill="#333333" d="M365.16,54.504c0,2.051,0.977,3.027,3.026,3.027c2.052,0,3.028-0.977,3.028-3.027
	c0-1.953-0.977-2.93-3.028-2.93C366.137,51.574,365.16,52.551,365.16,54.504z"/>
<path fill="#333333" d="M354.808,70.521c0-1.66-0.879-2.637-2.637-2.637c-1.66,0-2.637,0.977-2.637,2.637
	c0,1.758,0.977,2.636,2.637,2.636C353.929,73.156,354.808,72.278,354.808,70.521z"/>
<path fill="#333333" d="M360.179,67.884c-1.659,0-2.637,0.977-2.637,2.637c0,1.758,0.978,2.636,2.637,2.636
	c1.759,0,2.539-0.878,2.539-2.636C362.718,68.86,361.938,67.884,360.179,67.884z"/>
<path fill="#333333" d="M371.02,62.513c0-1.954-0.977-2.832-2.833-2.832c-1.854,0-2.831,0.878-2.831,2.832
	c0,1.854,0.977,2.733,2.831,2.733C370.043,65.246,371.02,64.367,371.02,62.513z"/>
<path fill="#333333" d="M370.727,70.521c0-1.66-0.782-2.637-2.54-2.637c-1.66,0-2.538,0.977-2.538,2.637
	c0,1.758,0.878,2.636,2.538,2.636C369.944,73.156,370.727,72.278,370.727,70.521z"/>
<path fill="#333333" d="M368.187,76.086c-1.562,0-2.441,0.782-2.441,2.442c0,1.661,0.88,2.441,2.441,2.441
	c1.563,0,2.345-0.78,2.345-2.441C370.531,76.868,369.75,76.086,368.187,76.086z"/>
<path fill="#333333" d="M352.171,88.782c1.465,0,2.246-0.78,2.246-2.344c0-1.465-0.781-2.148-2.246-2.148s-2.148,0.684-2.148,2.148
	C350.022,88.002,350.706,88.782,352.171,88.782z"/>
<path fill="#333333" d="M357.933,86.438c0,1.563,0.781,2.344,2.246,2.344c1.563,0,2.247-0.78,2.247-2.344
	c0-1.465-0.685-2.148-2.247-2.148C358.714,84.29,357.933,84.974,357.933,86.438z"/>
<path fill="#333333" d="M336.252,51.574c-2.051,0-3.027,0.977-3.027,2.93c0,2.051,0.977,3.027,3.027,3.027
	c1.953,0,2.93-0.977,2.93-3.027C339.182,52.551,338.205,51.574,336.252,51.574z"/>
<path fill="#333333" d="M338.987,62.513c0-1.954-0.977-2.832-2.735-2.832c-1.855,0-2.832,0.878-2.832,2.832
	c0,1.854,0.977,2.733,2.832,2.733C338.011,65.246,338.987,64.367,338.987,62.513z"/>
<path fill="#333333" d="M346.8,70.521c0-1.66-0.879-2.637-2.637-2.637s-2.54,0.977-2.54,2.637c0,1.758,0.782,2.636,2.54,2.636
	S346.8,72.278,346.8,70.521z"/>
<path fill="#333333" d="M325.51,54.504c0-1.953-0.978-2.93-3.027-2.93c-2.051,0-3.027,0.977-3.027,2.93
	c0,2.051,0.977,3.027,3.027,3.027C324.532,57.531,325.51,56.555,325.51,54.504z"/>
<path fill="#333333" d="M317.014,70.521c0-1.66-0.782-2.637-2.54-2.637c-1.66,0-2.538,0.977-2.538,2.637
	c0,1.758,0.878,2.636,2.538,2.636C316.231,73.156,317.014,72.278,317.014,70.521z"/>
<path fill="#333333" d="M325.314,62.513c0-1.954-0.977-2.832-2.832-2.832c-1.856,0-2.734,0.878-2.734,2.832
	c0,1.854,0.878,2.733,2.734,2.733C324.338,65.246,325.314,64.367,325.314,62.513z"/>
<path fill="#333333" d="M344.163,88.782c1.465,0,2.246-0.78,2.246-2.344c0-1.465-0.781-2.148-2.246-2.148s-2.246,0.684-2.246,2.148
	C341.917,88.002,342.698,88.782,344.163,88.782z"/>
<path fill="#333333" d="M309.103,70.521c0-1.66-0.878-2.637-2.637-2.637c-1.659,0-2.637,0.977-2.637,2.637
	c0,1.758,0.978,2.636,2.637,2.636C308.225,73.156,309.103,72.278,309.103,70.521z"/>
<path fill="#333333" d="M301.095,70.521c0-1.66-0.879-2.637-2.637-2.637c-1.66,0-2.637,0.977-2.637,2.637
	c0,1.758,0.977,2.636,2.637,2.636C300.216,73.156,301.095,72.278,301.095,70.521z"/>
<path fill="#333333" d="M287.521,54.504c0,2.051,0.977,3.027,2.93,3.027c2.05,0,3.027-0.977,3.027-3.027
	c0-1.953-0.978-2.93-3.027-2.93C288.497,51.574,287.521,52.551,287.521,54.504z"/>
<path fill="#333333" d="M287.716,62.513c0,1.854,0.977,2.733,2.734,2.733c1.953,0,2.831-0.879,2.831-2.733
	c0-1.954-0.878-2.832-2.831-2.832C288.692,59.681,287.716,60.559,287.716,62.513z"/>
<path fill="#333333" d="M127.456,22.57c0-2.54-1.27-3.81-3.809-3.81c-2.441,0-3.711,1.27-3.711,3.81c0,2.441,1.27,3.71,3.711,3.71
	C126.186,26.28,127.456,25.012,127.456,22.57z"/>
<path fill="#333333" d="M119.447,22.57c0-2.54-1.27-3.81-3.711-3.81c-2.539,0-3.808,1.27-3.808,3.81c0,2.441,1.269,3.71,3.808,3.71
	C118.178,26.28,119.447,25.012,119.447,22.57z"/>
<path fill="#333333" d="M123.647,26.965c-2.344,0-3.516,1.171-3.516,3.516c0,2.344,1.172,3.612,3.516,3.612
	c2.442,0,3.613-1.269,3.613-3.612C127.26,28.136,126.089,26.965,123.647,26.965z"/>
<path fill="#333333" d="M123.647,43.37c-2.051,0-3.125,0.977-3.125,3.127c0,2.147,1.074,3.221,3.125,3.221
	c2.148,0,3.125-1.073,3.125-3.221C126.771,44.347,125.795,43.37,123.647,43.37z"/>
<path fill="#333333" d="M120.326,38.487c0,2.247,1.074,3.418,3.321,3.418c2.246,0,3.418-1.171,3.418-3.418
	c0-2.245-1.172-3.319-3.418-3.319C121.4,35.168,120.326,36.242,120.326,38.487z"/>
<path fill="#333333" d="M173.16,22.57c0-2.54-1.367-3.81-3.809-3.81c-2.54,0-3.71,1.27-3.71,3.81c0,2.441,1.171,3.71,3.71,3.71
	C171.793,26.28,173.16,25.012,173.16,22.57z"/>
<path fill="#333333" d="M165.153,22.57c0-2.54-1.271-3.81-3.712-3.81c-2.539,0-3.808,1.27-3.808,3.81c0,2.441,1.269,3.71,3.808,3.71
	C163.882,26.28,165.153,25.012,165.153,22.57z"/>
<path fill="#333333" d="M169.352,34.093c2.344,0,3.614-1.269,3.614-3.612c0-2.345-1.27-3.516-3.614-3.516
	c-2.441,0-3.516,1.171-3.516,3.516C165.835,32.824,166.91,34.093,169.352,34.093z"/>
<path fill="#333333" d="M172.574,46.497c0-2.15-1.074-3.127-3.223-3.127c-2.051,0-3.125,0.977-3.125,3.127
	c0,2.147,1.074,3.221,3.125,3.221C171.5,49.718,172.574,48.645,172.574,46.497z"/>
<path fill="#333333" d="M169.352,35.168c-2.246,0-3.418,1.074-3.418,3.319c0,2.247,1.172,3.418,3.418,3.418
	c2.246,0,3.32-1.171,3.32-3.418C172.672,36.242,171.598,35.168,169.352,35.168z"/>
<path fill="#333333" d="M199.04,35.168c-2.148,0-3.32,1.074-3.32,3.319c0,2.247,1.172,3.418,3.32,3.418
	c2.247,0,3.418-1.171,3.418-3.418C202.458,36.242,201.287,35.168,199.04,35.168z"/>
<path fill="#333333" d="M199.04,43.37c-2.051,0-3.125,0.977-3.125,3.127c0,2.147,1.074,3.221,3.125,3.221
	c2.148,0,3.223-1.073,3.223-3.221C202.263,44.347,201.188,43.37,199.04,43.37z"/>
<path fill="#333333" d="M231.073,35.168c-2.247,0-3.321,1.074-3.321,3.319c0,2.247,1.074,3.418,3.321,3.418
	c2.246,0,3.418-1.171,3.418-3.418C234.491,36.242,233.319,35.168,231.073,35.168z"/>
<path fill="#333333" d="M231.073,43.37c-2.149,0-3.224,0.977-3.224,3.127c0,2.147,1.075,3.221,3.224,3.221
	c2.147,0,3.124-1.073,3.124-3.221C234.197,44.347,233.221,43.37,231.073,43.37z"/>
<path fill="#333333" d="M272.578,22.57c0-2.54-1.271-3.81-3.809-3.81c-2.539,0-3.711,1.27-3.711,3.81c0,2.441,1.172,3.71,3.711,3.71
	C271.308,26.28,272.578,25.012,272.578,22.57z"/>
<path fill="#333333" d="M264.57,22.57c0-2.54-1.27-3.81-3.81-3.81c-2.538,0-3.711,1.27-3.711,3.81c0,2.441,1.173,3.71,3.711,3.71
	C263.301,26.28,264.57,25.012,264.57,22.57z"/>
<path fill="#333333" d="M252.753,18.761c-2.441,0-3.711,1.27-3.711,3.81c0,2.441,1.27,3.71,3.711,3.71
	c2.539,0,3.809-1.269,3.809-3.71C256.562,20.03,255.292,18.761,252.753,18.761z"/>
<path fill="#333333" d="M244.843,18.761c-2.539,0-3.809,1.27-3.809,3.81c0,2.441,1.27,3.71,3.809,3.71
	c2.441,0,3.711-1.269,3.711-3.71C248.554,20.03,247.284,18.761,244.843,18.761z"/>
<path fill="#333333" d="M248.358,30.48c0-2.345-1.171-3.516-3.515-3.516c-2.441,0-3.614,1.171-3.614,3.516
	c0,2.344,1.172,3.612,3.614,3.612C247.187,34.093,248.358,32.824,248.358,30.48z"/>
<path fill="#333333" d="M252.753,43.37c-2.051,0-3.124,0.977-3.124,3.127c0,2.147,1.073,3.221,3.124,3.221
	c2.148,0,3.224-1.073,3.224-3.221C255.977,44.347,254.901,43.37,252.753,43.37z"/>
<path fill="#333333" d="M247.968,46.497c0-2.15-1.075-3.127-3.125-3.127c-2.246,0-3.321,0.977-3.321,3.127
	c0,2.147,1.075,3.221,3.321,3.221C246.893,49.718,247.968,48.645,247.968,46.497z"/>
<path fill="#333333" d="M244.843,41.905c2.148,0,3.321-1.171,3.321-3.418c0-2.245-1.172-3.319-3.321-3.319
	c-2.344,0-3.418,1.074-3.418,3.319C241.425,40.734,242.499,41.905,244.843,41.905z"/>
<path fill="#333333" d="M268.77,43.37c-2.051,0-3.223,0.977-3.223,3.127c0,2.147,1.172,3.221,3.223,3.221
	c2.148,0,3.125-1.073,3.125-3.221C271.895,44.347,270.918,43.37,268.77,43.37z"/>
<path fill="#333333" d="M260.761,43.37c-2.148,0-3.125,0.977-3.125,3.127c0,2.147,0.977,3.221,3.125,3.221
	c2.052,0,3.223-1.073,3.223-3.221C263.983,44.347,262.813,43.37,260.761,43.37z"/>
<path fill="#333333" d="M28.038,22.57c0-2.54-1.27-3.81-3.711-3.81c-2.539,0-3.809,1.27-3.809,3.81c0,2.441,1.27,3.71,3.809,3.71
	C26.769,26.28,28.038,25.012,28.038,22.57z"/>
<path fill="#333333" d="M32.237,18.761c-2.539,0-3.71,1.27-3.71,3.81c0,2.441,1.172,3.71,3.71,3.71c2.54,0,3.81-1.269,3.81-3.71
	C36.046,20.03,34.777,18.761,32.237,18.761z"/>
<path fill="#333333" d="M16.221,41.905c2.246,0,3.321-1.171,3.321-3.418c0-2.245-1.075-3.319-3.321-3.319
	c-2.148,0-3.32,1.074-3.32,3.319C12.9,40.734,14.072,41.905,16.221,41.905z"/>
<path fill="#333333" d="M27.452,46.497c0-2.15-1.075-3.127-3.125-3.127c-2.148,0-3.223,0.977-3.223,3.127
	c0,2.147,1.074,3.221,3.223,3.221C26.377,49.718,27.452,48.645,27.452,46.497z"/>
<path fill="#333333" d="M16.221,34.093c2.442,0,3.614-1.269,3.614-3.612c0-2.345-1.172-3.516-3.614-3.516
	c-2.344,0-3.516,1.171-3.516,3.516C12.705,32.824,13.877,34.093,16.221,34.093z"/>
<path fill="#333333" d="M32.237,43.37c-2.05,0-3.125,0.977-3.125,3.127c0,2.147,1.075,3.221,3.125,3.221
	c2.052,0,3.223-1.073,3.223-3.221C35.459,44.347,34.289,43.37,32.237,43.37z"/>
<path fill="#333333" d="M43.956,22.57c0-2.54-1.172-3.81-3.711-3.81c-2.539,0-3.71,1.27-3.71,3.81c0,2.441,1.172,3.71,3.71,3.71
	C42.784,26.28,43.956,25.012,43.956,22.57z"/>
<path fill="#333333" d="M44.737,30.48c0,2.344,1.172,3.612,3.516,3.612c2.442,0,3.516-1.269,3.516-3.612
	c0-2.345-1.074-3.516-3.516-3.516C45.909,26.965,44.737,28.136,44.737,30.48z"/>
<path fill="#333333" d="M40.245,43.37c-2.05,0-3.222,0.977-3.222,3.127c0,2.147,1.172,3.221,3.222,3.221
	c2.149,0,3.125-1.073,3.125-3.221C43.371,44.347,42.394,43.37,40.245,43.37z"/>
<path fill="#333333" d="M66.516,38.487c0,2.247,1.171,3.418,3.418,3.418c2.246,0,3.32-1.171,3.32-3.418
	c0-2.245-1.074-3.319-3.32-3.319C67.688,35.168,66.516,36.242,66.516,38.487z"/>
<path fill="#333333" d="M81.067,46.497c0-2.15-0.977-3.127-3.125-3.127c-2.05,0-3.124,0.977-3.124,3.127
	c0,2.147,1.074,3.221,3.124,3.221C80.09,49.718,81.067,48.645,81.067,46.497z"/>
<path fill="#333333" d="M81.36,38.487c0-2.245-1.171-3.319-3.418-3.319c-2.246,0-3.32,1.074-3.32,3.319
	c0,2.247,1.074,3.418,3.32,3.418C80.188,41.905,81.36,40.734,81.36,38.487z"/>
<path fill="#333333" d="M77.941,26.28c2.442,0,3.81-1.269,3.81-3.71c0-2.54-1.368-3.81-3.81-3.81c-2.441,0-3.71,1.27-3.71,3.81
	C74.231,25.012,75.5,26.28,77.941,26.28z"/>
<path fill="#333333" d="M77.941,57.531c1.954,0,2.93-0.977,2.93-3.027c0-1.953-0.977-2.93-2.93-2.93c-1.953,0-2.93,0.977-2.93,2.93
	C75.012,56.555,75.988,57.531,77.941,57.531z"/>
<path fill="#333333" d="M80.579,70.521c0-1.66-0.878-2.637-2.637-2.637c-1.757,0-2.539,0.977-2.539,2.637
	c0,1.758,0.781,2.636,2.539,2.636C79.7,73.156,80.579,72.278,80.579,70.521z"/>
<path fill="#333333" d="M80.774,62.513c0-1.954-0.977-2.832-2.833-2.832c-1.854,0-2.734,0.878-2.734,2.832
	c0,1.854,0.879,2.733,2.734,2.733C79.797,65.246,80.774,64.367,80.774,62.513z"/>
<path fill="#333333" d="M85.95,67.884c-1.661,0-2.637,0.977-2.637,2.637c0,1.758,0.977,2.636,2.637,2.636
	c1.757,0,2.637-0.878,2.637-2.636C88.587,68.86,87.708,67.884,85.95,67.884z"/>
<path fill="#333333" d="M69.934,67.884c-1.66,0-2.54,0.977-2.54,2.637c0,1.758,0.879,2.636,2.54,2.636
	c1.758,0,2.636-0.878,2.636-2.636C72.57,68.86,71.692,67.884,69.934,67.884z"/>
<path fill="#333333" d="M51.281,54.504c0-1.953-0.977-2.93-3.027-2.93c-1.953,0-2.93,0.977-2.93,2.93
	c0,2.051,0.977,3.027,2.93,3.027C50.304,57.531,51.281,56.555,51.281,54.504z"/>
<path fill="#333333" d="M40.245,67.884c-1.757,0-2.539,0.977-2.539,2.637c0,1.758,0.781,2.636,2.539,2.636
	c1.661,0,2.637-0.878,2.637-2.636C42.882,68.86,41.906,67.884,40.245,67.884z"/>
<path fill="#333333" d="M51.085,62.513c0-1.954-0.977-2.832-2.832-2.832c-1.855,0-2.833,0.878-2.833,2.832
	c0,1.854,0.977,2.733,2.833,2.733C50.108,65.246,51.085,64.367,51.085,62.513z"/>
<path fill="#333333" d="M34.874,70.521c0-1.66-0.879-2.637-2.637-2.637c-1.66,0-2.539,0.977-2.539,2.637
	c0,1.758,0.878,2.636,2.539,2.636C33.995,73.156,34.874,72.278,34.874,70.521z"/>
<path fill="#333333" d="M19.053,62.513c0-1.954-0.977-2.832-2.832-2.832c-1.757,0-2.734,0.878-2.734,2.832
	c0,1.854,0.977,2.733,2.734,2.733C18.076,65.246,19.053,64.367,19.053,62.513z"/>
<path fill="#333333" d="M24.327,67.884c-1.758,0-2.637,0.977-2.637,2.637c0,1.758,0.879,2.636,2.637,2.636
	c1.661,0,2.539-0.878,2.539-2.636C26.866,68.86,25.987,67.884,24.327,67.884z"/>
<path fill="#333333" d="M244.843,57.531c1.953,0,2.93-0.977,2.93-3.027c0-1.953-0.977-2.93-2.93-2.93
	c-2.051,0-3.027,0.977-3.027,2.93C241.815,56.555,242.792,57.531,244.843,57.531z"/>
<path fill="#333333" d="M247.381,70.521c0-1.66-0.878-2.637-2.539-2.637c-1.856,0-2.734,0.977-2.734,2.637
	c0,1.758,0.878,2.636,2.734,2.636C246.503,73.156,247.381,72.278,247.381,70.521z"/>
<path fill="#333333" d="M247.577,62.513c0-1.954-0.878-2.832-2.734-2.832s-2.833,0.878-2.833,2.832c0,1.854,0.977,2.733,2.833,2.733
	S247.577,64.367,247.577,62.513z"/>
<path fill="#333333" d="M228.143,54.504c0,2.051,0.977,3.027,2.93,3.027c2.05,0,3.027-0.977,3.027-3.027
	c0-1.953-0.977-2.93-3.027-2.93C229.12,51.574,228.143,52.551,228.143,54.504z"/>
<path fill="#333333" d="M231.073,59.681c-1.856,0-2.735,0.878-2.735,2.832c0,1.854,0.879,2.733,2.735,2.733
	c1.854,0,2.734-0.879,2.734-2.733C233.807,60.559,232.928,59.681,231.073,59.681z"/>
<path fill="#333333" d="M231.073,67.884c-1.759,0-2.637,0.977-2.637,2.637c0,1.758,0.878,2.636,2.637,2.636
	c1.659,0,2.636-0.878,2.636-2.636C233.709,68.86,232.732,67.884,231.073,67.884z"/>
<path fill="#333333" d="M217.693,70.521c0-1.66-0.879-2.637-2.637-2.637c-1.758,0-2.539,0.977-2.539,2.637
	c0,1.758,0.781,2.636,2.539,2.636C216.814,73.156,217.693,72.278,217.693,70.521z"/>
<path fill="#333333" d="M225.702,70.521c0-1.66-0.879-2.637-2.637-2.637c-1.661,0-2.54,0.977-2.54,2.637
	c0,1.758,0.879,2.636,2.54,2.636C224.822,73.156,225.702,72.278,225.702,70.521z"/>
<path fill="#333333" d="M199.04,57.531c2.051,0,3.028-0.977,3.028-3.027c0-1.953-0.977-2.93-3.028-2.93
	c-1.954,0-2.93,0.977-2.93,2.93C196.11,56.555,197.086,57.531,199.04,57.531z"/>
<path fill="#333333" d="M196.306,62.513c0,1.854,0.879,2.733,2.734,2.733c1.953,0,2.833-0.879,2.833-2.733
	c0-1.954-0.879-2.832-2.833-2.832C197.185,59.681,196.306,60.559,196.306,62.513z"/>
<path fill="#333333" d="M207.146,67.884c-1.759,0-2.735,0.977-2.735,2.637c0,1.758,0.977,2.636,2.735,2.636
	c1.659,0,2.539-0.878,2.539-2.636C209.685,68.86,208.806,67.884,207.146,67.884z"/>
<path fill="#333333" d="M207.146,88.782c1.465,0,2.147-0.78,2.147-2.344c0-1.465-0.683-2.148-2.147-2.148
	c-1.563,0-2.247,0.684-2.247,2.148C204.899,88.002,205.583,88.782,207.146,88.782z"/>
<path fill="#333333" d="M223.065,88.782c1.465,0,2.246-0.78,2.246-2.344c0-1.465-0.781-2.148-2.246-2.148
	c-1.563,0-2.246,0.684-2.246,2.148C220.819,88.002,221.501,88.782,223.065,88.782z"/>
<path fill="#333333" d="M217.302,86.438c0-1.465-0.684-2.148-2.246-2.148c-1.465,0-2.246,0.684-2.246,2.148
	c0,1.563,0.781,2.344,2.246,2.344C216.619,88.782,217.302,88.002,217.302,86.438z"/>
<path fill="#333333" d="M228.631,78.528c0,1.661,0.781,2.441,2.442,2.441c1.659,0,2.441-0.78,2.441-2.441
	c0-1.66-0.782-2.442-2.441-2.442C229.413,76.086,228.631,76.868,228.631,78.528z"/>
<path fill="#333333" d="M179.996,70.521c0-1.66-0.977-2.637-2.636-2.637c-1.759,0-2.637,0.977-2.637,2.637
	c0,1.758,0.878,2.636,2.637,2.636C179.02,73.156,179.996,72.278,179.996,70.521z"/>
<path fill="#333333" d="M166.324,54.504c0,2.051,0.977,3.027,3.028,3.027c1.954,0,2.93-0.977,2.93-3.027
	c0-1.953-0.977-2.93-2.93-2.93C167.3,51.574,166.324,52.551,166.324,54.504z"/>
<path fill="#333333" d="M163.98,70.521c0-1.66-0.879-2.637-2.54-2.637c-1.855,0-2.636,0.977-2.636,2.637
	c0,1.758,0.781,2.636,2.636,2.636C163.101,73.156,163.98,72.278,163.98,70.521z"/>
<path fill="#333333" d="M169.352,65.246c1.855,0,2.832-0.879,2.832-2.733c0-1.954-0.977-2.832-2.832-2.832
	c-1.855,0-2.734,0.878-2.734,2.832C166.618,64.367,167.496,65.246,169.352,65.246z"/>
<path fill="#333333" d="M171.989,70.521c0-1.66-0.879-2.637-2.637-2.637c-1.66,0-2.54,0.977-2.54,2.637
	c0,1.758,0.879,2.636,2.54,2.636C171.109,73.156,171.989,72.278,171.989,70.521z"/>
<path fill="#333333" d="M123.647,51.574c-1.953,0-2.93,0.977-2.93,2.93c0,2.051,0.977,3.027,2.93,3.027
	c2.051,0,3.027-0.977,3.027-3.027C126.674,52.551,125.698,51.574,123.647,51.574z"/>
<path fill="#333333" d="M123.647,59.681c-1.855,0-2.735,0.878-2.735,2.832c0,1.854,0.879,2.733,2.735,2.733
	c1.855,0,2.832-0.879,2.832-2.733C126.479,60.559,125.502,59.681,123.647,59.681z"/>
<path fill="#333333" d="M118.276,70.521c0-1.66-0.879-2.637-2.54-2.637c-1.758,0-2.637,0.977-2.637,2.637
	c0,1.758,0.879,2.636,2.637,2.636C117.396,73.156,118.276,72.278,118.276,70.521z"/>
<path fill="#333333" d="M123.647,67.884c-1.758,0-2.54,0.977-2.54,2.637c0,1.758,0.781,2.636,2.54,2.636
	c1.758,0,2.636-0.878,2.636-2.636C126.283,68.86,125.405,67.884,123.647,67.884z"/>
<path fill="#333333" d="M131.655,67.884c-1.66,0-2.539,0.977-2.539,2.637c0,1.758,0.879,2.636,2.539,2.636
	c1.758,0,2.637-0.878,2.637-2.636C134.292,68.86,133.413,67.884,131.655,67.884z"/>
<path fill="#9A3466" d="M385.376,45.323c0.977,0.88,2.05,1.368,3.418,1.368c1.27,0,2.441-0.488,3.319-1.368
	c0.88-0.977,1.368-2.05,1.368-3.418c0-1.366-0.488-2.441-1.368-3.418c-0.878-0.878-2.05-1.366-3.319-1.366
	c-1.368,0-2.441,0.488-3.418,1.366c-0.977,0.977-1.466,2.052-1.466,3.418C383.91,43.273,384.399,44.347,385.376,45.323z"/>
<path fill="#9A3466" d="M392.113,66.419c0.88-0.977,1.368-2.149,1.368-3.418c0-1.367-0.488-2.442-1.368-3.419
	c-0.878-0.878-2.05-1.366-3.319-1.366c-1.368,0-2.441,0.488-3.418,1.366c-0.977,0.977-1.466,2.052-1.466,3.419
	c0,1.269,0.489,2.441,1.466,3.418c0.977,0.878,2.05,1.366,3.418,1.366C390.063,67.785,391.235,67.297,392.113,66.419z"/>
<path fill="#9A3466" d="M437.428,35.266c-0.293-1.271-0.977-2.344-2.051-3.126c-1.172-0.683-2.344-0.977-3.613-0.683
	c-1.367,0.292-2.441,0.977-3.125,2.147c-0.781,1.075-0.977,2.344-0.781,3.614c0.293,1.269,0.977,2.344,2.147,3.125
	c1.075,0.684,2.345,0.977,3.712,0.684c1.27-0.293,2.246-0.977,3.027-2.052C437.428,37.805,437.721,36.534,437.428,35.266z"/>
<path fill="#9A3466" d="M437.135,19.932c-0.684-1.171-1.66-1.953-2.93-2.441c-1.27-0.39-2.441-0.292-3.712,0.294
	c-1.171,0.586-2.05,1.465-2.441,2.833c-0.39,1.268-0.39,2.538,0.294,3.71c0.488,1.27,1.465,2.051,2.734,2.441
	c1.367,0.488,2.637,0.391,3.809-0.195c1.27-0.585,2.051-1.562,2.441-2.93C437.818,22.373,437.624,21.202,437.135,19.932z"/>
<path fill="#9A3466" d="M416.92,18.37c0.977,0.977,2.05,1.562,3.418,1.562c1.269,0.197,2.441-0.291,3.515-1.171
	c0.977-0.977,1.563-2.051,1.563-3.418c0.194-1.271-0.195-2.539-1.172-3.516s-2.052-1.465-3.418-1.661
	c-1.27,0-2.441,0.294-3.517,1.271c-0.977,0.879-1.465,2.051-1.659,3.32C415.65,16.124,415.942,17.296,416.92,18.37z"/>
<path fill="#9A3466" d="M407.349,17.394c-1.367,0.293-2.441,0.977-3.125,2.05c-0.781,1.174-0.977,2.441-0.781,3.712
	c0.293,1.368,0.977,2.345,2.148,3.125c1.074,0.685,2.344,0.977,3.711,0.685c1.27-0.294,2.246-0.977,3.027-2.149
	c0.684-1.074,0.977-2.245,0.684-3.613c-0.292-1.271-0.977-2.344-2.051-3.027C409.79,17.394,408.618,17.198,407.349,17.394z"/>
<path fill="#9A3466" d="M409.79,31.651c-1.27-0.488-2.441-0.391-3.711,0.196c-1.172,0.586-1.954,1.563-2.442,2.832
	c-0.39,1.366-0.39,2.539,0.294,3.808c0.488,1.173,1.465,1.953,2.832,2.441c1.27,0.392,2.539,0.294,3.711-0.292
	c1.271-0.586,2.051-1.563,2.539-2.832c0.391-1.271,0.196-2.539-0.292-3.712C412.036,32.824,411.157,32.042,409.79,31.651z"/>
<path fill="#9A3466" d="M422.975,31.651c0.586-0.683,0.977-1.465,0.977-2.441s-0.391-1.757-0.977-2.441
	c-0.684-0.684-1.563-0.977-2.441-0.977c-0.977,0-1.759,0.293-2.441,0.977c-0.684,0.685-0.977,1.465-0.977,2.441
	s0.293,1.759,0.977,2.441c0.683,0.586,1.465,0.977,2.441,0.977C421.411,32.628,422.291,32.237,422.975,31.651z"/>
<path fill="#9A3466" d="M420.728,38.487c-1.366-0.098-2.636,0.196-3.612,1.173c-0.977,0.879-1.465,2.051-1.661,3.32
	c0,1.366,0.391,2.539,1.27,3.613c0.88,0.977,2.051,1.563,3.321,1.659c1.366,0,2.636-0.39,3.612-1.268
	c0.977-0.977,1.563-2.052,1.563-3.419c0.195-1.27-0.293-2.539-1.172-3.516C423.169,39.074,421.998,38.487,420.728,38.487z"/>
</svg>
