<?xml version="1.0" encoding="utf-8"?>
<!-- Generator: Adobe Illustrator 16.0.4, SVG Export Plug-In . SVG Version: 6.00 Build 0)  -->
<!DOCTYPE svg PUBLIC "-//W3C//DTD SVG 1.0//EN" "http://www.w3.org/TR/2001/REC-SVG-20010904/DTD/svg10.dtd">
<svg version="1.0" id="Layer_3" xmlns="http://www.w3.org/2000/svg" xmlns:xlink="http://www.w3.org/1999/xlink" x="0px" y="0px"
	 width="74px" height="74px" viewBox="-364.573 282.731 74 74" enable-background="new -364.573 282.731 74 74"
	 xml:space="preserve">
<path opacity="0.75" fill="#993366" d="M-327.573,282.731c-20.43,0-37,16.57-37,37s16.57,37,37,37s37-16.57,37-37
	S-307.143,282.731-327.573,282.731z M-326.461,328.316l-11.889,11.889c-2.073,2.072-5.434,2.073-7.507,0.001l-2.19-2.191
	c-2.074-2.073-2.073-5.434,0-7.507l11.889-11.889c1.937-1.937,5-2.062,7.083-0.378l-3.724,3.724l0.002,0.003
	c-0.764,0.001-1.528,0.292-2.111,0.875l-8.917,8.917c-1.165,1.164-1.165,3.056,0,4.223c1.167,1.166,3.059,1.167,4.225,0.001
	l8.915-8.917c0.589-0.587,0.878-1.358,0.874-2.128l3.718-3.719C-324.397,323.303-324.52,326.375-326.461,328.316z M-320.855,310.28
	c0.891-0.891,2.226-1,2.979-0.247c0.754,0.754,0.644,2.089-0.247,2.979l-16.135,16.136c-0.891,0.891-2.226,1-2.979,0.246
	s-0.645-2.088,0.248-2.979L-320.855,310.28z M-307.1,308.955l-11.888,11.888c-1.941,1.942-5.014,2.065-7.098,0.37l3.719-3.719
	c0.77,0.005,1.542-0.284,2.129-0.873l8.916-8.916c1.166-1.165,1.166-3.057,0-4.224c-1.167-1.166-3.058-1.166-4.223,0l-8.916,8.916
	c-0.581,0.581-0.872,1.344-0.874,2.105l-3.729,3.729c-1.683-2.085-1.557-5.147,0.38-7.085l11.888-11.888
	c2.073-2.073,5.434-2.074,7.507,0l2.191,2.189C-305.027,303.521-305.027,306.883-307.1,308.955z"/>
</svg>
