<?xml version="1.0" encoding="utf-8"?>
<!-- Generator: Adobe Illustrator 16.0.3, SVG Export Plug-In . SVG Version: 6.00 Build 0)  -->
<!DOCTYPE svg PUBLIC "-//W3C//DTD SVG 1.1//EN" "http://www.w3.org/Graphics/SVG/1.1/DTD/svg11.dtd">
<svg version="1.1" id="Layer_1" xmlns="http://www.w3.org/2000/svg" xmlns:xlink="http://www.w3.org/1999/xlink" x="0px" y="0px"
	 width="104px" height="103px" viewBox="0 0 104 103" enable-background="new 0 0 104 103" xml:space="preserve">
<g id="warhawk">
	<path fill="#F0F0F0" d="M50.88,37.574v12.237h12.237c-0.2-3.224-1.508-6-3.93-8.325C56.863,39.076,54.093,37.774,50.88,37.574z"/>
	<path fill="#F0F0F0" d="M50.88,63.793c3.213-0.201,5.983-1.503,8.308-3.912c2.422-2.326,3.729-5.097,3.929-8.309H50.88V63.793z"/>
	<path fill="#F0F0F0" d="M36.882,49.812H49.12V37.574c-3.221,0.2-6.044,1.502-8.466,3.912
		C38.329,43.812,37.073,46.588,36.882,49.812z"/>
	<path fill="#F0F0F0" d="M40.653,59.881c2.422,2.409,5.245,3.711,8.466,3.912V51.572H36.882
		C37.074,54.784,38.329,57.555,40.653,59.881z"/>
	<path fill="#F0F0F0" d="M92.734,49.812H77.18c-0.204-7.123-2.902-13.271-8.018-18.27c-5.022-5.126-11.17-7.826-18.282-8.03V6.62
		c0-0.486-0.395-0.88-0.88-0.88c-0.486,0-0.88,0.394-0.88,0.88v16.892c-7.123,0.204-13.27,2.903-18.268,8.018
		c-5.128,5.011-7.828,11.159-8.032,18.282H7.265c-0.486,0-0.879,0.395-0.879,0.881s0.394,0.88,0.879,0.88h15.554
		c0.205,7.111,2.904,13.252,8.018,18.252c5.011,5.126,11.159,7.825,18.282,8.03V95.38c0,0.487,0.394,0.88,0.88,0.88
		c0.485,0,0.88-0.393,0.88-0.88V77.854c7.112-0.205,13.26-2.902,18.269-8.018c5.128-5.011,7.826-11.153,8.031-18.265h15.555
		c0.486,0,0.88-0.394,0.88-0.88S93.221,49.812,92.734,49.812z M75.419,51.572c-0.204,6.62-2.725,12.34-7.514,17.021
		c-4.68,4.775-10.403,7.297-17.025,7.501V63.821h-1.76v12.272c-6.632-0.204-12.356-2.726-17.038-7.515
		c-4.776-4.669-7.298-10.387-7.502-17.007h12.272v-1.761H24.58c0.204-6.632,2.726-12.355,7.516-17.038
		c4.668-4.776,10.392-7.298,17.023-7.502v12.272h1.76V25.271c6.622,0.205,12.346,2.727,17.039,7.517
		c4.775,4.668,7.296,10.392,7.5,17.023H63.147v1.761H75.419z"/>
</g>
</svg>
